<?xml version="1.0" encoding="UTF-8" standalone="no"?>
<svg xmlns:dc="http://purl.org/dc/elements/1.1/" xmlns:cc="http://creativecommons.org/ns#" xmlns:rdf="http://www.w3.org/1999/02/22-rdf-syntax-ns#" xmlns:svg="http://www.w3.org/2000/svg" xmlns="http://www.w3.org/2000/svg" height="242" width="919" xml:space="preserve" viewBox="0 0 919 242" y="0px" x="0px" version="1.1">
  <g transform="translate(-501.09927,-572.86683)" fill="#ffffff">
   <path d="m 504.48,581.28 h 46.15 c 25.53,0 32.08,8.18 32.08,36 v 70.7 c 0,27.82 -6.55,36 -32.08,36 h -17.68 v 86.41 H 504.47 V 581.28 Z m 40.59,115.87 c 8.18,0 9.16,-3.27 9.16,-13.09 v -62.84 c 0,-9.82 -0.98,-13.09 -9.16,-13.09 h -12.11 v 89.03 h 12.11 z" />
   <path d="m 674.03,779.3 c 0,11.46 0.98,22.26 4.25,31.09 H 648.5 c -2.62,-5.56 -2.95,-16.37 -2.95,-27.49 v -59.57 c 0,-10.47 -1.96,-15.06 -11.13,-15.06 H 623.29 V 810.4 H 594.81 V 581.28 h 46.81 c 25.53,0 32.41,8.18 32.41,36 v 43.86 c 0,20.62 -3.93,30.11 -16.04,33.71 12.11,3.6 16.04,13.42 16.04,34.04 z M 645.55,621.21 c 0,-9.82 -0.98,-13.09 -9.16,-13.09 H 623.3 v 73.32 h 13.09 c 8.18,0 9.16,-3.27 9.16,-13.09 z" />
   <path d="m 688.42,615.64 c 0,-27.82 6.87,-36 32.41,-36 h 14.73 c 25.53,0 32.41,8.18 32.41,36 v 160.38 c 0,27.82 -6.87,36 -32.41,36 h -14.73 c -25.53,0 -32.41,-8.18 -32.41,-36 z m 51.07,3.93 c 0,-9.82 -0.98,-13.09 -9.16,-13.09 h -3.93 c -8.51,0 -9.16,3.27 -9.16,13.09 V 772.1 c 0,9.82 0.65,13.09 9.16,13.09 h 3.93 c 8.18,0 9.16,-3.27 9.16,-13.09 z" />
   <path d="m 813.79,668.67 c 2.95,31.75 5.24,65.79 6.55,94.59 1.31,-28.8 3.6,-62.84 6.55,-94.59 l 8.51,-87.39 h 25.53 L 837.68,810.4 H 800.04 L 776.8,581.28 h 28.48 z" />
   <path d="M 871.72,581.28 H 900.2 V 810.4 h -28.48 z" />
   <path d="m 946.67,691.91 c -2.62,-15.38 -4.58,-31.1 -6.22,-45.82 0.33,14.73 0.98,30.77 0.98,45.82 V 810.4 H 916.88 V 581.28 h 35.68 l 16.37,99.83 c 2.62,15.06 4.25,30.44 5.89,45.82 -0.33,-16.04 -0.98,-31.1 -0.98,-46.15 v -99.5 h 24.55 V 810.4 h -31.75 z" />
   <path d="m 1042.89,772.1 c 0,9.82 0.65,13.09 9.16,13.09 h 3.93 c 8.18,0 9.16,-3.27 9.16,-13.09 v -59.24 h 26.84 v 63.17 c 0,27.82 -6.87,36 -32.4,36 h -13.09 c -25.53,0 -32.41,-8.18 -32.41,-36 V 615.64 c 0,-27.82 6.87,-36 32.41,-36 h 13.09 c 25.53,0 32.4,8.18 32.4,36 V 669 h -26.84 v -49.42 c 0,-9.82 -0.98,-13.09 -9.16,-13.09 h -3.93 c -8.51,0 -9.16,3.27 -9.16,13.09 z" />
   <path d="m 1107.37,581.28 h 28.48 V 810.4 h -28.48 z" />
   <path d="m 1200,777.67 h -24.55 l -3.27,32.73 h -25.53 l 22.91,-229.12 h 39.28 l 23.24,229.12 h -28.8 z m -21.93,-26.84 h 19.31 l -1.31,-15.06 c -4.25,-48.44 -6.87,-86.74 -8.51,-124.05 -1.64,37.31 -4.25,74.63 -8.18,123.07 z" />
   <path d="m 1283.58,703.87 h -25.01 v -122.4 h 68.77 v 25.01 h -43.76 v 44.75 c 2.63,-8.88 8.88,-14.15 21.06,-14.15 h 6.25 c 15.79,0 20.07,6.91 20.07,25.99 v 116.81 c 0,25.99 -6.25,33.56 -29.94,33.56 h -12.5 c -24.02,0 -29.94,-7.57 -29.94,-33.56 V 720 h 25.01 v 56.27 c 0,8.88 0.99,11.85 8.56,11.85 h 3.62 c 7.9,0 8.56,-2.96 8.56,-11.85 V 672.94 c 0,-8.55 -0.66,-11.85 -7.9,-11.85 h -3.29 c -6.91,0 -9.54,4.94 -9.54,14.48 v 28.3 z" />
   <path d="m 1368.14,661.43 h -25.01 v -48.04 c 0,-25.99 5.92,-33.56 29.94,-33.56 h 12.5 c 23.69,0 29.94,7.57 29.94,33.56 v 45.74 c 0,18.76 -3.29,28.3 -14.48,31.92 10.86,3.29 14.48,12.17 14.48,31.26 v 57.58 c 0,25.99 -6.25,33.56 -29.94,33.56 h -12.5 c -24.02,0 -29.94,-7.57 -29.94,-33.56 V 720 h 25.01 v 56.27 c 0,8.88 0.99,11.85 8.56,11.85 h 3.62 c 7.57,0 8.56,-2.96 8.56,-11.85 V 715.4 c 0,-8.88 -0.99,-12.17 -8.56,-12.17 h -24.68 v -25.34 h 24.68 c 7.57,0 8.56,-2.96 8.56,-11.85 v -49.03 c 0,-8.88 -0.99,-11.85 -8.56,-11.85 h -3.62 c -7.57,0 -8.56,2.96 -8.56,11.85 z" />
  </g>
</svg>
