<svg xmlns="http://www.w3.org/2000/svg" viewBox="0 0 687.57 207.15">
    <title>Recurso 1</title>
    <g id="Capa_2" fill="#fff">
        <g id="Capa_1-2">
            <path d="M.11,1.18h33.3c18.42,0,23.14,5.9,23.14,26v51c0,20.08-4.72,26-23.14,26H20.65v62.34H.11Zm29.28,83.6c5.9,0,6.61-2.36,6.61-9.45V30c0-7.08-.71-9.45-6.61-9.45H20.65V84.78Z" />
            <path d="M122.43,144.05c0,8.27.71,16.06,3.07,22.43H104c-1.89-4-2.12-11.8-2.12-19.83v-43c0-7.56-1.42-10.86-8-10.86h-8v73.67H65.28V1.18H99.05c18.42,0,23.38,5.9,23.38,26V58.8c0,14.88-2.83,21.73-11.57,24.32,8.74,2.6,11.57,9.69,11.57,24.56ZM101.89,30c0-7.08-.71-9.45-6.62-9.45H85.83v52.9h9.44c5.91,0,6.62-2.36,6.62-9.44Z" />
            <path d="M132.82,26c0-20.08,5-26,23.38-26h10.62c18.42,0,23.38,5.9,23.38,26V141.69c0,20.07-5,26-23.38,26H156.2c-18.42,0-23.38-5.9-23.38-26Zm36.84,2.83c0-7.08-.71-9.45-6.62-9.45h-2.83c-6.14,0-6.61,2.37-6.61,9.45v110c0,7.09.47,9.45,6.61,9.45H163c5.91,0,6.62-2.36,6.62-9.45Z" />
            <path d="M223.26,64.23c2.13,22.91,3.78,47.47,4.72,68.25,1-20.78,2.6-45.34,4.73-68.25l6.14-63h18.42L240.5,166.48H213.34L196.58,1.18h20.54Z" />
            <path d="M265.06,1.18H285.6v165.3H265.06Z" />
            <path d="M319.13,81c-1.89-11.1-3.3-22.44-4.48-33.06.23,10.62.7,22.2.7,33.06v85.48H297.64V1.18h25.74l11.81,72c1.89,10.86,3.07,22,4.25,33.06-.24-11.57-.71-22.44-.71-33.3V1.18h17.71v165.3h-22.9Z" />
            <path d="M388.56,138.85c0,7.09.47,9.45,6.61,9.45H398c5.91,0,6.61-2.36,6.61-9.45V96.11H424v45.58c0,20.07-5,26-23.38,26h-9.45c-18.42,0-23.38-5.9-23.38-26V26c0-20.08,5-26,23.38-26h9.45C419,0,424,5.9,424,26V64.47H404.61V28.81c0-7.08-.7-9.45-6.61-9.45h-2.83c-6.14,0-6.61,2.37-6.61,9.45Z" />
            <path d="M435.07,1.18h20.55v165.3H435.07Z" />
            <path d="M501.9,142.87H484.19l-2.36,23.61H463.41L479.94,1.18h28.34L525,166.48H504.26Zm-15.82-19.36H500l-.94-10.87c-3.07-34.95-5-62.58-6.14-89.5-1.18,26.92-3.07,53.84-5.9,88.79Z" />
            <path d="M570.68,110.07H548.52V1.62h60.93V23.78H570.68V63.43c2.33-7.87,7.87-12.54,18.66-12.54h5.54c14,0,17.78,6.12,17.78,23V177.41c0,23-5.54,29.74-26.53,29.74H575.05c-21.28,0-26.53-6.7-26.53-29.74v-53h22.16v49.85c0,7.87.87,10.49,7.58,10.49h3.2c7,0,7.58-2.62,7.58-10.49V82.67c0-7.58-.58-10.5-7-10.5h-2.92c-6.12,0-8.45,4.37-8.45,12.83Z" />
            <path d="M645.59,72.46H623.44V29.9c0-23,5.25-29.74,26.53-29.74h11.08c21,0,26.52,6.71,26.52,29.74V70.42c0,16.62-2.91,25.07-12.82,28.28,9.62,2.92,12.82,10.79,12.82,27.7v51c0,23-5.53,29.74-26.52,29.74H650c-21.28,0-26.53-6.7-26.53-29.74v-53h22.15v49.85c0,7.87.88,10.49,7.59,10.49h3.2c6.71,0,7.58-2.62,7.58-10.49V120.27c0-7.87-.87-10.78-7.58-10.78H634.52V87h21.86c6.71,0,7.58-2.62,7.58-10.5V33.11c0-7.87-.87-10.5-7.58-10.5h-3.2c-6.71,0-7.59,2.63-7.59,10.5Z" />
            <path d="M19.51,191.68v15H16.93V195.18l-7.14,8.67H9.64l-7.15-8.67V206.7H0v-15H2.79l7,8.6,7-8.6Z" />
            <path d="M30.39,205.18a6.57,6.57,0,0,0,4.81-1.7l1.46,1.57a9.06,9.06,0,0,1-6.4,2.1c-4.7,0-7.4-2.45-7.4-6.31s2.7-6.35,7.23-6.35c4.23,0,7,2.21,7,6.33a1.51,1.51,0,0,1-.07.56H25.33C25.56,203.93,27.43,205.18,30.39,205.18Zm-4.95-5.58,9.2,0c-.54-2.15-2.21-3.12-4.53-3.12S25.91,197.52,25.44,199.6Z" />
            <path d="M62.67,199.94v6.76H60.2v-6.61c0-2.17-1-3.5-3.32-3.5a4.57,4.57,0,0,0-4.32,2.9v5.45l0,1.76H50.1v-6.61c0-2.17-1-3.5-3.33-3.5a4.54,4.54,0,0,0-4.27,2.81v7.3H40V194.94H42.5v2.27a5.58,5.58,0,0,1,5-2.7,4.51,4.51,0,0,1,4.74,3.26,5.67,5.67,0,0,1,5.37-3.26C61.17,194.51,62.67,196.89,62.67,199.94Z" />
            <path d="M65.62,200.84c0-3.9,2.77-6.35,7.31-6.35s7.32,2.45,7.32,6.35-2.74,6.31-7.32,6.31S65.62,204.73,65.62,200.84Zm12.19,0c0-2.85-2.08-4.25-4.88-4.25s-4.84,1.4-4.84,4.25,2.08,4.21,4.84,4.21S77.81,203.65,77.81,200.84Z" />
            <path d="M83.3,206.7V194.94h2.51v2.68a6,6,0,0,1,5.56-2.92v2.19c-2.61,0-4.76,1.1-5.56,3.31v6.5Z" />
            <path d="M93.35,191.94a1.47,1.47,0,0,1,1.61-1.4,1.45,1.45,0,0,1,1.59,1.4A1.47,1.47,0,0,1,95,193.33,1.49,1.49,0,0,1,93.35,191.94Zm2.88,14.76H93.74V194.94h2.49Z" />
            <path d="M112.54,200.16v4.27a4.46,4.46,0,0,0,.53,2.27h-2.59a3.21,3.21,0,0,1-.45-1.65v0a6.6,6.6,0,0,1-5.13,2.1c-2.54,0-5.91-1-5.91-4.12s3.37-4.1,5.91-4.1A6.6,6.6,0,0,1,110,201v-.85c0-2.54-1.55-3.67-4.58-3.67a8.31,8.31,0,0,0-4.46,1.18l-.9-1.7a12,12,0,0,1,5.84-1.46C110,194.51,112.54,196.46,112.54,200.16Zm-2.47,2.68c-.95-1.63-2.94-2.13-4.7-2.13-1.57,0-3.91.41-3.91,2.3s2.34,2.32,3.91,2.32c1.76,0,3.75-.52,4.7-2.13Z" />
            <path d="M128.53,203.25c0,2.18-2.15,3.9-6.29,3.9a10.75,10.75,0,0,1-7.08-2.42l1.35-1.48a8.61,8.61,0,0,0,5.79,1.95c2.17,0,3.84-.56,3.84-1.74s-1.52-1.55-4.29-1.76c-3.19-.24-6.24-1-6.24-3.5,0-2.29,2.36-3.71,6.31-3.71a10.66,10.66,0,0,1,6,1.87L126.64,198a7.83,7.83,0,0,0-4.85-1.55c-1.59,0-3.8.32-3.8,1.61s1.87,1.42,4.27,1.57C125.87,199.88,128.53,200.86,128.53,203.25Z" />
            <path d="M144.18,207.15c-4.53,0-7.28-2.47-7.28-6.31s2.75-6.35,7.28-6.35c3.28,0,5.3,1.33,6.33,3l-2.36,1a4.27,4.27,0,0,0-4-2c-2.79,0-4.83,1.42-4.83,4.27s2,4.23,4.83,4.23a4.31,4.31,0,0,0,4-2l2.36,1C149.54,205.82,147.52,207.15,144.18,207.15Z" />
            <path d="M153.19,206.7V194.94h2.51v2.68a6,6,0,0,1,5.56-2.92v2.19c-2.62,0-4.76,1.1-5.56,3.31v6.5Z" />
            <path d="M176.71,194.94V206.7H174.2v-2.27a6.07,6.07,0,0,1-5.36,2.7c-3.58,0-5.37-2.3-5.37-5.47v-6.72H166v6.54c0,2.32,1.18,3.57,3.52,3.57a5.08,5.08,0,0,0,4.72-2.88v-7.23Z" />
            <path d="M192,196.59l-9,8.11h9.21v2H179.55v-1.67l8.93-8.11h-8.63v-2H192Z" />
            <path d="M207.56,200.16v4.27a4.36,4.36,0,0,0,.54,2.27h-2.6a3.31,3.31,0,0,1-.45-1.65v0a6.58,6.58,0,0,1-5.13,2.1c-2.53,0-5.9-1-5.9-4.12s3.37-4.1,5.9-4.1a6.58,6.58,0,0,1,5.13,2.1v-.85c0-2.54-1.55-3.67-4.57-3.67a8.34,8.34,0,0,0-4.47,1.18l-.9-1.7a12.07,12.07,0,0,1,5.84-1.46C205.05,194.51,207.56,196.46,207.56,200.16Zm-2.47,2.68c-.94-1.63-2.94-2.13-4.7-2.13-1.56,0-3.9.41-3.9,2.3s2.34,2.32,3.9,2.32c1.76,0,3.76-.52,4.7-2.13Z" />
            <path d="M222.05,197v-6.22h2.51V206.7h-2.51v-2.08a6.38,6.38,0,0,1-5.41,2.51,6.31,6.31,0,1,1,0-12.62A6.34,6.34,0,0,1,222.05,197Zm0,5.54v-3.52a5.28,5.28,0,0,0-4.77-2.4c-2.91,0-4.54,1.48-4.54,4.18s1.63,4.16,4.54,4.16A5.3,5.3,0,0,0,222.05,202.58Z" />
            <path d="M240.85,200.16v4.27a4.36,4.36,0,0,0,.54,2.27h-2.6a3.31,3.31,0,0,1-.45-1.65v0a6.57,6.57,0,0,1-5.13,2.1c-2.53,0-5.9-1-5.9-4.12s3.37-4.1,5.9-4.1a6.57,6.57,0,0,1,5.13,2.1v-.85c0-2.54-1.54-3.67-4.57-3.67a8.28,8.28,0,0,0-4.46,1.18l-.9-1.7a12,12,0,0,1,5.83-1.46C238.34,194.51,240.85,196.46,240.85,200.16Zm-2.47,2.68c-.94-1.63-2.94-2.13-4.7-2.13-1.56,0-3.9.41-3.9,2.3s2.34,2.32,3.9,2.32c1.76,0,3.76-.52,4.7-2.13Z" />
            <path d="M256.84,203.25c0,2.18-2.14,3.9-6.28,3.9a10.79,10.79,0,0,1-7.09-2.42l1.36-1.48a8.61,8.61,0,0,0,5.79,1.95c2.17,0,3.84-.56,3.84-1.74s-1.52-1.55-4.29-1.76c-3.2-.24-6.25-1-6.25-3.5,0-2.29,2.37-3.71,6.31-3.71a10.61,10.61,0,0,1,6,1.87L255,198a7.84,7.84,0,0,0-4.86-1.55c-1.58,0-3.79.32-3.79,1.61s1.86,1.42,4.27,1.57C254.18,199.88,256.84,200.86,256.84,203.25Z" />
            <path d="M301.85,202.26c0,2.85-2.81,4.89-7.92,4.89a13.47,13.47,0,0,1-9-3.05l1.61-1.82a10.6,10.6,0,0,0,7.47,2.64c3.35,0,5.19-.88,5.19-2.45s-1.89-1.95-5.66-2.27c-4.14-.35-8.05-1.27-8.05-4.34s3.45-4.63,7.77-4.63a12.12,12.12,0,0,1,7.83,2.49l-1.63,1.76a9.21,9.21,0,0,0-6.16-2c-2.38,0-5.21.56-5.21,2.23s2.51,1.87,5.79,2.13C298.59,198.18,301.85,199.13,301.85,202.26Z" />
            <path d="M317.11,200.16v4.27a4.36,4.36,0,0,0,.54,2.27h-2.6a3.31,3.31,0,0,1-.45-1.65v0a6.57,6.57,0,0,1-5.13,2.1c-2.53,0-5.9-1-5.9-4.12s3.37-4.1,5.9-4.1a6.57,6.57,0,0,1,5.13,2.1v-.85c0-2.54-1.54-3.67-4.57-3.67a8.28,8.28,0,0,0-4.46,1.18l-.9-1.7a12,12,0,0,1,5.83-1.46C314.6,194.51,317.11,196.46,317.11,200.16Zm-2.46,2.68c-.95-1.63-2.95-2.13-4.7-2.13-1.57,0-3.91.41-3.91,2.3s2.34,2.32,3.91,2.32c1.75,0,3.75-.52,4.7-2.13Z" />
            <path d="M334.09,200v6.72H331.6v-6.54c0-2.32-1.18-3.57-3.52-3.57a5.1,5.1,0,0,0-4.72,2.88v7.23h-2.51V190.82h2.51v6.39a6.08,6.08,0,0,1,5.37-2.7C332.31,194.51,334.09,196.81,334.09,200Z" />
            <path d="M350.3,200.16v4.27a4.46,4.46,0,0,0,.53,2.27h-2.59a3.31,3.31,0,0,1-.45-1.65v0a6.6,6.6,0,0,1-5.13,2.1c-2.53,0-5.9-1-5.9-4.12s3.37-4.1,5.9-4.1a6.6,6.6,0,0,1,5.13,2.1v-.85c0-2.54-1.55-3.67-4.57-3.67a8.32,8.32,0,0,0-4.47,1.18l-.9-1.7a12,12,0,0,1,5.84-1.46C347.79,194.51,350.3,196.46,350.3,200.16Zm-2.47,2.68c-.95-1.63-2.94-2.13-4.7-2.13-1.57,0-3.91.41-3.91,2.3s2.34,2.32,3.91,2.32c1.76,0,3.75-.52,4.7-2.13Z" />
            <path d="M354,206.7V194.94h2.51v2.68a6,6,0,0,1,5.55-2.92v2.19c-2.61,0-4.76,1.1-5.55,3.31v6.5Z" />
            <path d="M376.44,200.16v4.27a4.36,4.36,0,0,0,.54,2.27h-2.6a3.31,3.31,0,0,1-.45-1.65v0a6.57,6.57,0,0,1-5.13,2.1c-2.53,0-5.9-1-5.9-4.12s3.37-4.1,5.9-4.1a6.57,6.57,0,0,1,5.13,2.1v-.85c0-2.54-1.54-3.67-4.57-3.67a8.28,8.28,0,0,0-4.46,1.18L364,196a12,12,0,0,1,5.83-1.46C373.93,194.51,376.44,196.46,376.44,200.16ZM374,202.84c-.94-1.63-2.94-2.13-4.7-2.13-1.56,0-3.9.41-3.9,2.3s2.34,2.32,3.9,2.32c1.76,0,3.76-.52,4.7-2.13Z" />
            <path d="M385.91,199.19c0-5,3.56-8,9.33-8s9.34,3,9.34,8-3.56,8-9.34,8S385.91,204.15,385.91,199.19Zm16,0c0-3.65-2.62-5.69-6.7-5.69s-6.71,2-6.71,5.69,2.62,5.69,6.71,5.69S401.94,202.84,401.94,199.19Z" />
            <path d="M414.18,207.15c-4.53,0-7.28-2.47-7.28-6.31s2.75-6.35,7.28-6.35c3.28,0,5.3,1.33,6.33,3l-2.36,1a4.26,4.26,0,0,0-3.95-2c-2.79,0-4.83,1.42-4.83,4.27s2,4.23,4.83,4.23a4.31,4.31,0,0,0,4-2l2.36,1C419.54,205.82,417.53,207.15,414.18,207.15Z" />
            <path d="M429.52,207.15c-4.52,0-7.27-2.47-7.27-6.31s2.75-6.35,7.27-6.35c3.29,0,5.31,1.33,6.34,3l-2.36,1a4.27,4.27,0,0,0-3.95-2c-2.79,0-4.83,1.42-4.83,4.27s2,4.23,4.83,4.23a4.31,4.31,0,0,0,4-2l2.36,1C434.89,205.82,432.87,207.15,429.52,207.15Z" />
            <path d="M438.22,191.94a1.47,1.47,0,0,1,1.61-1.4,1.45,1.45,0,0,1,1.59,1.4,1.47,1.47,0,0,1-1.59,1.39A1.49,1.49,0,0,1,438.22,191.94Zm2.88,14.76h-2.49V194.94h2.49Z" />
            <path d="M455.92,197v-6.22h2.52V206.7h-2.52v-2.08a6.35,6.35,0,0,1-5.4,2.51,6.31,6.31,0,1,1,0-12.62A6.31,6.31,0,0,1,455.92,197Zm0,5.54v-3.52a5.27,5.27,0,0,0-4.76-2.4c-2.92,0-4.55,1.48-4.55,4.18s1.63,4.16,4.55,4.16A5.28,5.28,0,0,0,455.92,202.58Z" />
            <path d="M469,205.18a6.57,6.57,0,0,0,4.81-1.7l1.45,1.57a9,9,0,0,1-6.39,2.1c-4.7,0-7.4-2.45-7.4-6.31s2.7-6.35,7.23-6.35c4.22,0,7,2.21,7,6.33a1.84,1.84,0,0,1-.06.56H463.93C464.17,203.93,466,205.18,469,205.18Zm-5-5.58,9.21,0c-.54-2.15-2.21-3.12-4.53-3.12C466.25,196.46,464.51,197.52,464,199.6Z" />
            <path d="M478.59,206.7V194.94h2.52v2.27a6.07,6.07,0,0,1,5.36-2.7c3.58,0,5.37,2.3,5.37,5.47v6.72h-2.49v-6.54c0-2.32-1.19-3.57-3.52-3.57a5.08,5.08,0,0,0-4.72,2.88v7.23Z" />
            <path d="M504,206a6.62,6.62,0,0,1-3.62,1.1c-2.3,0-4.12-1.22-4.12-3.67v-6.52h-2.28v-2h2.28v-2.73h2.51v2.73h5.13v2h-5.13v6.11A2,2,0,0,0,501,205a4.89,4.89,0,0,0,2.34-.7Z" />
            <path d="M518.71,200.16v4.27a4.46,4.46,0,0,0,.53,2.27h-2.59a3.31,3.31,0,0,1-.45-1.65v0a6.58,6.58,0,0,1-5.13,2.1c-2.53,0-5.9-1-5.9-4.12s3.37-4.1,5.9-4.1a6.58,6.58,0,0,1,5.13,2.1v-.85c0-2.54-1.55-3.67-4.57-3.67a8.34,8.34,0,0,0-4.47,1.18l-.9-1.7a12,12,0,0,1,5.84-1.46C516.2,194.51,518.71,196.46,518.71,200.16Zm-2.47,2.68c-.94-1.63-2.94-2.13-4.7-2.13-1.57,0-3.9.41-3.9,2.3s2.33,2.32,3.9,2.32c1.76,0,3.76-.52,4.7-2.13Z" />
            <path d="M522.51,206.7V190.82H525V206.7Z" />
            <circle cx="270.9" cy="199.67" r="2.7" />
        </g>
    </g>
</svg>