<?xml version="1.0" encoding="UTF-8" standalone="no"?>
<svg
   xmlns:dc="http://purl.org/dc/elements/1.1/"
   xmlns:cc="http://creativecommons.org/ns#"
   xmlns:rdf="http://www.w3.org/1999/02/22-rdf-syntax-ns#"
   xmlns:svg="http://www.w3.org/2000/svg"
   xmlns="http://www.w3.org/2000/svg"
   id="svg895"
   version="1.1"
   viewBox="0 -47 512.00004 512">
  <metadata
     id="metadata901">
    <rdf:RDF>
      <cc:Work
         rdf:about="">
        <dc:format>image/svg+xml</dc:format>
        <dc:type
           rdf:resource="http://purl.org/dc/dcmitype/StillImage" />
        <dc:title></dc:title>
      </cc:Work>
    </rdf:RDF>
  </metadata>
  <defs
     id="defs899" />
  <path
     style="fill:#ffffff"
     id="path893"
     d="m 462.22222,85.823924 c -25.94455,1.195747 -25.37815,1.098199 -28.31087,1.343641 L 449.2767,43.286814 c 0,0 -47.96203,17.643555 -60.12089,20.799697 C 357.22309,35.385447 309.75824,34.117327 275.82422,54.973664 248.0357,72.057105 233.12034,101.3938 238.09527,135.68341 184.01291,128.17853 138.44553,102.54235 102.46929,59.325551 L 91.090821,45.659427 82.588434,61.273359 C 71.842448,81.003178 68.274089,103.56188 72.537869,124.79267 c 1.749566,8.71007 4.723199,17.01736 8.842231,24.79601 l -9.761068,-3.78233 -1.157986,16.30935 c -1.173719,16.56738 4.342448,35.90701 14.75803,51.72863 2.932726,4.45572 6.708768,9.34885 11.4949,14.17588 l -5.044162,-0.77408 6.154948,18.68826 c 8.090168,24.5537 24.893558,43.55035 46.700198,54.11067 -21.77832,9.24187 -39.37153,15.13878 -68.289717,24.65126 l -26.457465,8.69748 24.437284,13.3609 c 9.317382,5.09451 42.241318,22.10872 74.771918,27.21267 72.31119,11.34071 153.7258,2.10515 208.53505,-47.25716 46.16526,-41.57737 61.31347,-100.71962 58.16677,-162.26595 -0.47515,-9.31739 2.07683,-18.20996 7.18707,-25.03515 10.23622,-13.66613 39.28342,-53.493932 39.34635,-53.585186 z" />
</svg>
