<?xml version="1.0" standalone="no"?>
<!DOCTYPE svg PUBLIC "-//W3C//DTD SVG 20010904//EN"
 "http://www.w3.org/TR/2001/REC-SVG-20010904/DTD/svg10.dtd">
<svg version="1.0" xmlns="http://www.w3.org/2000/svg"
 width="2400.000000pt" height="2400.000000pt" viewBox="0 0 2400.000000 2400.000000"
 preserveAspectRatio="xMidYMid meet">
<metadata>
Created by potrace 1.11, written by Peter Selinger 2001-2013
</metadata>
<g transform="translate(0.000000,2400.000000) scale(0.100000,-0.100000)"
fill="#000000" stroke="none">
<path d="M16219 23416 c-2 -2 -60 -6 -129 -10 -145 -8 -227 -13 -290 -20 -25
-3 -72 -8 -105 -11 -33 -3 -78 -8 -100 -11 -22 -3 -51 -7 -65 -9 -556 -75
-1009 -222 -1350 -439 -124 -78 -175 -120 -291 -235 -99 -99 -125 -131 -201
-241 -187 -274 -349 -704 -434 -1157 -27 -147 -48 -274 -59 -353 -3 -25 -7
-61 -10 -80 -10 -74 -17 -136 -30 -270 -8 -87 -16 -191 -32 -440 -3 -52 -8
-982 -10 -2066 l-4 -1970 1240 0 c868 0 1241 3 1242 10 0 6 2 763 4 1681 2
919 5 1706 9 1750 14 203 17 242 21 275 3 19 7 54 10 78 12 100 17 132 36 227
44 222 118 404 205 503 120 137 359 246 607 278 23 3 53 7 67 10 159 27 1222
27 1370 0 14 -3 42 -7 63 -10 106 -16 117 -18 177 -35 386 -105 540 -276 637
-705 2 -12 6 -34 9 -51 3 -16 9 -52 14 -80 13 -68 25 -166 34 -270 14 -150 16
-190 22 -350 7 -220 7 -3882 0 -4085 -6 -159 -13 -260 -21 -340 -2 -25 -7 -70
-10 -100 -7 -69 -34 -250 -40 -270 -3 -8 -7 -33 -11 -55 -11 -71 -73 -264
-110 -340 -80 -167 -253 -284 -506 -344 -109 -25 -122 -28 -258 -46 -109 -15
-456 -19 -1850 -19 -877 -1 -1597 -4 -1600 -7 -3 -4 -5 -562 -5 -1241 l0
-1233 1575 -1 c1441 -2 1739 -5 1840 -19 19 -2 54 -7 78 -10 24 -3 66 -10 95
-16 29 -6 63 -12 77 -15 107 -20 292 -101 375 -163 152 -115 261 -341 309
-641 19 -118 34 -230 41 -305 25 -299 26 -414 26 -2990 0 -2250 -2 -2710 -15
-2855 -3 -25 -7 -81 -11 -125 -7 -87 -7 -87 -31 -255 -9 -63 -17 -117 -19
-120 -2 -3 -6 -22 -9 -43 -3 -21 -18 -80 -32 -130 -78 -281 -166 -394 -378
-493 -70 -32 -209 -77 -271 -87 -116 -19 -166 -27 -205 -32 -204 -24 -1190
-25 -1330 -1 -14 3 -42 7 -62 10 -21 3 -55 9 -75 12 -65 9 -227 52 -284 74
-177 69 -312 178 -369 298 -53 112 -100 271 -129 442 -6 36 -13 74 -15 85 -4
21 -10 79 -22 200 -3 39 -8 79 -10 89 -14 78 -18 614 -18 2553 l-1 2213 -90 0
c-101 0 -2222 0 -2328 0 l-68 0 4 -2557 c2 -1407 7 -2588 10 -2626 2 -37 8
-122 12 -190 10 -159 18 -257 30 -357 2 -19 7 -64 11 -100 3 -36 8 -72 9 -80
1 -8 6 -40 10 -70 5 -47 27 -185 40 -255 104 -588 291 -1066 533 -1370 86
-107 190 -209 297 -288 28 -20 55 -40 60 -45 34 -26 156 -97 250 -144 160 -80
299 -132 550 -207 133 -40 347 -82 635 -126 14 -2 54 -6 90 -10 36 -4 76 -8
90 -10 50 -8 218 -20 435 -31 311 -16 2264 -8 2475 11 19 1 76 6 125 9 50 4
101 8 115 11 14 2 48 7 75 10 190 21 417 60 585 101 571 137 967 351 1256 679
27 32 150 197 171 230 55 88 132 241 198 390 38 85 150 448 171 550 7 35 12
59 24 110 16 71 57 304 70 405 6 47 13 96 15 110 2 14 6 48 9 75 3 28 8 73 11
100 18 167 31 366 41 600 10 220 9 5195 0 5425 -4 102 -9 208 -11 235 -11 171
-17 254 -20 280 -13 139 -18 184 -21 210 -2 17 -6 53 -9 80 -5 47 -14 112 -20
145 -1 8 -6 40 -10 70 -4 30 -9 64 -11 75 -2 11 -11 58 -20 105 -9 47 -18 93
-20 103 -2 10 -5 26 -8 35 -3 9 -7 28 -10 42 -7 44 -56 230 -70 268 -7 20 -19
55 -25 77 -86 282 -271 619 -451 819 -54 61 -167 172 -212 208 -22 18 -45 38
-52 43 -130 115 -414 273 -654 363 l-103 39 108 38 c438 153 751 374 1023 721
54 69 147 223 201 334 86 177 205 542 245 754 2 11 6 32 9 46 12 57 32 170 40
225 6 36 19 125 30 195 7 48 18 148 30 268 11 114 14 151 21 252 4 58 8 123 9
145 14 203 19 750 19 2375 -1 1643 -4 2120 -19 2330 -1 25 -6 90 -9 145 -4 55
-9 116 -11 135 -8 69 -17 156 -20 185 -7 90 -62 463 -70 474 -2 4 -6 27 -10
51 -9 65 -52 248 -87 370 -220 775 -573 1216 -1193 1488 -224 98 -601 206
-825 237 -14 2 -36 6 -50 9 -27 6 -81 14 -146 22 -23 3 -52 7 -64 9 -32 6
-152 17 -320 30 -47 4 -105 9 -130 12 -49 6 -2344 15 -2351 9z"/>
<path d="M2917 23252 c-2 -4 -3 -2759 -2 -6122 l0 -6115 1241 -3 1241 -2 1
1132 c1 1296 2 1333 48 1693 22 176 86 432 149 600 146 389 394 673 705 809
54 24 211 74 250 81 19 3 58 10 85 15 96 18 222 23 565 22 415 -1 512 -6 670
-39 41 -8 85 -17 97 -19 36 -7 164 -54 218 -81 57 -29 146 -92 191 -137 98
-99 184 -291 229 -511 15 -75 45 -277 51 -340 3 -38 7 -86 9 -105 16 -147 19
-881 19 -4930 0 -4074 -3 -4784 -19 -4904 -2 -17 -7 -62 -10 -101 -7 -72 -11
-107 -21 -172 -3 -21 -7 -54 -10 -73 -2 -19 -6 -42 -9 -50 -2 -8 -7 -31 -10
-50 -25 -152 -100 -357 -170 -466 -140 -218 -415 -331 -885 -360 -223 -15
-1070 -7 -1171 11 -13 2 -64 11 -114 19 -315 52 -534 162 -638 319 -104 156
-181 496 -212 932 -14 198 -17 531 -17 2533 l-1 2172 -76 0 c-1149 4 -2395 -1
-2400 -8 -3 -6 -6 -1101 -5 -2434 1 -2112 4 -2680 19 -2878 2 -25 6 -88 10
-140 3 -52 8 -113 10 -135 3 -22 7 -67 10 -100 6 -66 13 -122 20 -175 3 -19 7
-51 9 -70 13 -104 18 -140 26 -185 5 -27 11 -66 14 -86 8 -54 55 -274 78 -364
11 -44 21 -84 22 -90 35 -152 138 -427 225 -600 103 -203 187 -323 315 -450
112 -112 155 -146 281 -230 197 -130 373 -212 670 -310 164 -54 551 -136 760
-160 22 -3 60 -7 85 -10 25 -3 59 -7 75 -9 31 -4 148 -14 245 -21 357 -27
2382 -27 2650 0 19 2 76 6 125 10 50 3 97 8 105 10 8 2 44 6 80 10 36 4 76 8
90 10 109 14 136 17 154 21 33 6 128 24 161 29 24 4 170 36 275 60 8 2 55 15
104 30 826 242 1264 666 1524 1475 46 143 99 348 126 485 4 17 9 41 11 55 14
69 43 241 49 295 3 22 10 78 16 125 22 176 26 218 35 350 3 47 8 99 10 115 2
17 7 104 12 195 10 214 11 11027 0 11225 -4 83 -10 173 -12 200 -13 164 -17
213 -20 235 -2 14 -7 50 -10 80 -11 95 -35 261 -52 350 -8 47 -17 96 -20 110
-2 14 -11 54 -19 90 -9 36 -18 75 -20 88 -8 40 -74 255 -106 342 -145 401
-379 700 -691 882 -247 144 -533 240 -877 294 -19 3 -46 7 -60 10 -14 2 -52 6
-85 10 -33 3 -71 7 -85 10 -151 26 -1509 27 -1645 0 -11 -2 -47 -7 -80 -10
-33 -4 -96 -13 -140 -21 -933 -161 -1571 -668 -1916 -1526 -23 -57 -50 -129
-59 -159 l-18 -55 -2 45 c-1 25 -2 1103 -2 2395 l-1 2350 2744 2 c1509 0 2750
1 2757 2 9 1 12 256 12 1241 l0 1239 -3995 0 c-2197 0 -3996 -3 -3998 -7z"/>
</g>
</svg>
