<?xml version="1.0" encoding="UTF-8" standalone="no"?>
<svg
   xmlns:dc="http://purl.org/dc/elements/1.1/"
   xmlns:cc="http://creativecommons.org/ns#"
   xmlns:rdf="http://www.w3.org/1999/02/22-rdf-syntax-ns#"
   xmlns:svg="http://www.w3.org/2000/svg"
   xmlns="http://www.w3.org/2000/svg"
   id="svg989"
   version="1.1"
   viewBox="0 0 512 512">
  <metadata
     id="metadata995">
    <rdf:RDF>
      <cc:Work
         rdf:about="">
        <dc:format>image/svg+xml</dc:format>
        <dc:type
           rdf:resource="http://purl.org/dc/dcmitype/StillImage" />
        <dc:title></dc:title>
      </cc:Work>
    </rdf:RDF>
  </metadata>
  <defs
     id="defs993" />
  <path
     id="path981"
     d="M 126.38477 72.677734 C 96.770047 72.677734 72.677734 96.770047 72.677734 126.38477 L 72.677734 385.61523 C 72.677734 415.22995 96.770047 439.32227 126.38477 439.32227 L 385.61523 439.32227 C 415.22995 439.32227 439.32227 415.22995 439.32227 385.61523 L 439.32227 126.38477 C 439.32227 96.770047 415.22995 72.677734 385.61523 72.677734 L 126.38477 72.677734 z M 363.41602 123.51172 C 377.24081 123.51172 388.48828 134.75918 388.48828 148.58398 C 388.48828 162.40877 377.24081 173.6582 363.41602 173.6582 C 349.59123 173.6582 338.3418 162.40877 338.3418 148.58398 C 338.3418 134.75918 349.59123 123.51172 363.41602 123.51172 z M 256 180.80859 C 297.46117 180.80859 331.19141 214.53884 331.19141 256 C 331.19141 297.46117 297.46117 331.19141 256 331.19141 C 214.53884 331.19141 180.80859 297.46117 180.80859 256 C 180.80859 214.53884 214.53884 180.80859 256 180.80859 z "
     style="fill:#ffffff" />
</svg>
