<?xml version="1.0" encoding="UTF-8" standalone="no"?>
<svg xmlns:svg="http://www.w3.org/2000/svg" xmlns="http://www.w3.org/2000/svg" viewBox="0 0 512 512" version="1.1">
  <g fill="#fff">
    <path d="M 126.38558,439.32202 H 385.6144 c 29.61472,0 53.70762,-24.0929 53.70762,-53.70762 V 126.38558 c 0,-29.614715 -24.0929,-53.707618 -53.70762,-53.707618 H 126.38558 c -29.614715,0 -53.707618,24.092903 -53.707618,53.707618 V 385.6144 c 0,29.61472 24.092903,53.70762 53.707618,53.70762 z M 94.161015,126.38558 c 0,-17.76827 14.456295,-32.224565 32.224565,-32.224565 H 385.6144 c 17.76827,0 32.22456,14.456295 32.22456,32.224565 V 385.6144 c 0,17.76827 -14.45629,32.22456 -32.22456,32.22456 H 126.38558 c -17.76827,0 -32.224565,-14.45629 -32.224565,-32.22456 z m 0,0" />
    <path d="m 255.99999,352.67371 c 53.30481,0 96.67372,-43.36891 96.67372,-96.67372 0,-53.30482 -43.36891,-96.67373 -96.67372,-96.67373 -53.30482,0 -96.67373,43.36891 -96.67373,96.67373 0,53.30481 43.36891,96.67372 96.67373,96.67372 z m 0,-171.86439 c 41.46117,0 75.19067,33.72951 75.19067,75.19067 0,41.46117 -33.7295,75.19067 -75.19067,75.19067 -41.46116,0 -75.19067,-33.7295 -75.19067,-75.19067 0,-41.46116 33.72951,-75.19067 75.19067,-75.19067 z m 0,0" />
    <path d="m 363.41524,173.65741 c 13.82479,0 25.07267,-11.24788 25.07267,-25.07267 0,-13.8248 -11.24788,-25.07268 -25.07267,-25.07268 -13.82479,0 -25.07268,11.24788 -25.07268,25.07268 0,13.82479 11.24789,25.07267 25.07268,25.07267 z" />
  </g>
</svg>
